# xmcd
#
# Track frame offsets:
#	180
#	17888
#	43508
#	67192
#	85541
#	104288
#	120687
#	150026
#	172428
#	190146
#	211106
#	238367
#	254524
#
# Disc length: 3730 seconds
#
# Revision: 0
# Processed by: cddbd v1.4PL0 Copyright (c) Steve Scherf et al.
# Submitted via: dBpowerAMP V4.0
#
DISCID=b00e900d
DTITLE=Billy Hector - Hard to Please
DYEAR=1997
DGENRE=Blues
TTITLE0=Hard to Please
TTITLE1=There She Goes
TTITLE2=Cruise On Down
TTITLE3=Evaleen
TTITLE4=Vagabond
TTITLE5=The Creeper
TTITLE6=Whiskey
TTITLE7=Cruel Cruel World
TTITLE8=Sally Said
TTITLE9=Dance Dance Dance
TTITLE10=Lucky Charm
TTITLE11=Hammer
TTITLE12=Just Why
EXTD=
EXTT0=
EXTT1=
EXTT2=
EXTT3=
EXTT4=
EXTT5=
EXTT6=
EXTT7=
EXTT8=
EXTT9=
EXTT10=
EXTT11=
EXTT12=
PLAYORDER=
